<?xml version="1.0" encoding="UTF-8"?>
<svg id="Layer_2" data-name="Layer 2" xmlns="http://www.w3.org/2000/svg" viewBox="0 0 1137.81 417.54">
  <defs>
    <style>
      .cls-1 {
        fill: #fff;
        stroke-width: 0px;
      }

      .cls-2 {
        fill: #c30000;
        stroke: #fff;
        stroke-miterlimit: 10;
        stroke-width: 5px;
      }
    </style>
  </defs>
  <g id="Layer_82" data-name="Layer 82">
    <path class="cls-2" d="m254.1,286.04c-1.58-24.22-10.01-157.8-10.01-157.8h-55.37l-103.18,168.28s-6.33,11-19.09,11l-6.43,25h59.34l6.54-25.13h-.11c-19.47,0-8.32-15.87-8.32-15.87l14.46-23.34h60.72c.76,10.91,1.36,19.74,1.64,24.04,1.03,16.08-12.64,15.47-15.18,15.22l-6.53,25.08h88.14l6.61-25s-11.95-1.93-13.23-21.48Zm-107.06-42.24l39.41-63.59s2.35,32.98,4.5,63.59h-43.91Z"/>
    <path class="cls-2" d="m789.76,225.37s13.61-36.09-44.79-37.23c-58.39-1.13-74.08,7.18-74.08,7.18l-10.58,37.98h30.99s4.72-23.81,30.99-23.06c26.27.76,14.17,23.06,14.17,23.06,0,0-3.21,17.2-41.39,20.41-38.17,3.21-57.26,18.71-61.23,45.35-3.97,26.65,8.13,35.34,38.17,35.53s38.55-9.26,38.55-9.26l.57,7.37,65.57-3.21,5.86-20.98s-15.12-1.41-11.53-15.12c4.42-16.85,18.71-68.03,18.71-68.03Zm-77.01,80.6c-12.2,11.19-22.58,1.8-22.58,1.8,0,0-11.96-8.79-.09-22.2,13.04-14.74,37.42-16.68,37.42-16.68,0,0-1.04,24.52-14.74,37.09Z"/>
    <path class="cls-2" d="m437.7,225.37s13.61-36.09-44.79-37.23c-58.39-1.13-74.08,7.18-74.08,7.18l-10.58,37.98h30.99s4.72-23.81,30.99-23.06c26.27.76,14.17,23.06,14.17,23.06,0,0-3.21,17.2-41.39,20.41-38.17,3.21-57.26,18.71-61.23,45.35-3.97,26.65,8.13,35.34,38.17,35.53s38.55-9.26,38.55-9.26l.57,7.37,65.57-3.21,5.86-20.98s-14.91-2.43-11.53-15.12c4.48-16.83,18.71-68.03,18.71-68.03Zm-77.01,80.6c-12.2,11.19-22.58,1.8-22.58,1.8,0,0-11.96-8.79-.09-22.2,13.04-14.74,37.42-16.68,37.42-16.68,0,0-1.04,24.52-14.74,37.09Z"/>
    <path class="cls-2" d="m1089.14,291.25l45.35-166.39-67.46,2.93-5.67,20.79c16.35.19,11.46,13,10.68,16.35-1.95,8.39-8.6,32.98-8.6,32.98-34.58-22.11-66.7-9.1-88.54,9.17-25.42,21.26-53.29,78.52-25.8,112.25s79.94,1.13,79.94,1.13v12l65.2-3.78,5.39-21.26c-14.48.44-10.49-16.16-10.49-16.16Zm-39.24-49.07c-5.47,25.51-8.1,33.77-13.44,45.18-3.4,7.28-10.91,22.21-31.51,20.32-19.82-1.82-12.82-30.46-10.96-38.55,2.79-12.14,10.96-31.14,13.84-35.53,6.52-9.92,15.31-18.3,27.35-17.39,8.65.65,19.13,5.33,14.71,25.96Z"/>
    <path class="cls-2" d="m601.07,189.03c-13.61-2.27-51.87-11.91-91.84,8.79-39.97,20.69-64.63,85.04-41.67,119.62,22.96,34.58,82.91,4.96,82.91,4.96-3.83,34.44-23.95,47.48-46.49,48.76-22.54,1.28-22.54-10.49-22.54-10.49v-14.6l-33.45.28-12.19,43.65c12.47,4.25,52.44,11.34,103.18-3.12,50.74-14.46,61.8-59.53,61.8-59.53l36.85-136.06s-22.96,0-36.57-2.27Zm-25.35,50.09c-5.47,25.51-8.1,33.77-13.44,45.18-3.4,7.28-10.91,22.21-31.51,20.32-19.82-1.82-12.82-30.46-10.96-38.55,2.79-12.14,10.96-31.14,13.84-35.53,6.52-9.92,15.31-18.3,27.35-17.39,8.65.65,19.13,5.33,14.71,25.96Z"/>
    <path class="cls-2" d="m871.3,297.38c1.6-4.97,14.99-48.18,18.52-60.19,4.44-15.12,21.26-13.32,19.09-3.12-2.95,13.86-2.8,13.17-2.8,13.17l28.31.06,16.82-59.53s-32.5-5.48-57.83,18.71l4.16-17.2-64.06,3.59-5.48,20.98s13.2.69,10.02,15.69c-3.58,16.82-17.29,64.6-20.03,74.08-2.46,8.5-17.39,7.56-17.39,7.56l-5.86,21.73h82.39l5.67-21.54s-15.87-.47-11.53-13.98Z"/>
    <polygon class="cls-1" points="399.05 80.81 417.19 39.24 409.82 80.81 426.45 73.63 415.49 87.99 448.37 94.61 412.09 98.57 413.6 113.31 401.88 105.19 383.74 146.38 390.73 104.43 374.48 111.24 385.63 98.01 352.94 91.39 388.47 87.8 387.71 71.93 399.05 80.81"/>
    <path class="cls-1" d="m382.17,159.04c-.36.82-.71,1.63-1.06,2.45-3.08,7.1-6.22,14.04-9.44,20.8h-5.07c4.1-7.92,7.85-15.68,11.21-23.25h4.36Z"/>
    <path class="cls-1" d="m401.39,60.98l-4.27,1.21c-3.52-19.24-13.54-35.09-31.27-46.78C331.72-7.09,218.82-1.55,107.71,123.09-12.59,258.01-4.67,363.73,32.16,395.92c43.14,37.7,145.67,8.58,221.1-57.35h6.28c-95.35,86.88-197.66,94.58-234.29,59.17C-26.14,348.05,1.91,218.13,100.25,113.58,211.71-4.91,334.65-19.12,377.19,18.44c13.88,12.25,21.27,26.81,24.2,42.54Z"/>
  </g>
</svg>