<?xml version="1.0" encoding="UTF-8"?>
<svg id="Layer_2" data-name="Layer 2" xmlns="http://www.w3.org/2000/svg" viewBox="0 0 256 56">
  <defs>
    <style>
      .cls-1 {
        fill: #fff;
        stroke-width: .5px;
      }

      .cls-1, .cls-2 {
        stroke: #000;
        stroke-miterlimit: 10;
      }

      .cls-3, .cls-4, .cls-5 {
        stroke-width: 0px;
      }

      .cls-2 {
        stroke-width: .38px;
      }

      .cls-2, .cls-5 {
        fill: #efefef;
      }

      .cls-4 {
        fill: #b0b0b0;
      }
    </style>
  </defs>
  <g id="Layer_67" data-name="Layer 67">
    <g>
      <rect class="cls-5" x="1.5" y="1.5" width="253" height="53" rx="6.45" ry="6.45"/>
      <path class="cls-4" d="m248.05,3c2.74,0,4.95,2.22,4.95,4.95v40.09c0,2.74-2.22,4.95-4.95,4.95H7.95c-2.74,0-4.95-2.22-4.95-4.95V7.95c0-2.74,2.22-4.95,4.95-4.95h240.09m0-3H7.95C3.57,0,0,3.57,0,7.95v40.09c0,4.39,3.57,7.95,7.95,7.95h240.09c4.39,0,7.95-3.57,7.95-7.95V7.95c0-4.39-3.57-7.95-7.95-7.95h0Z"/>
    </g>
    <g>
      <rect class="cls-5" x="3.5" y="3.5" width="249" height="49" rx="4.45" ry="4.45"/>
      <path class="cls-3" d="m248.05,4c2.18,0,3.95,1.77,3.95,3.95v40.09c0,2.18-1.77,3.95-3.95,3.95H7.95c-2.18,0-3.95-1.77-3.95-3.95V7.95c0-2.18,1.77-3.95,3.95-3.95h240.09m0-1H7.95c-2.74,0-4.95,2.22-4.95,4.95v40.09c0,2.74,2.22,4.95,4.95,4.95h240.09c2.74,0,4.95-2.22,4.95-4.95V7.95c0-2.74-2.22-4.95-4.95-4.95h0Z"/>
    </g>
    <rect class="cls-2" x="12.35" y="36.53" width="229.17" height="1.32"/>
  </g>
  <g id="Layer_82" data-name="Layer 82">
    <g>
      <path class="cls-1" d="m15.29,29.59c-.12,0-.23,0-.35,0-.11,0-.22-.01-.32-.02v2.78h-1.3v-7.11h2.05c.34,0,.64.02.9.05.26.03.49.08.69.14.49.15.86.39,1.12.71.26.33.39.74.39,1.24,0,.34-.07.65-.21.93-.14.27-.35.51-.62.7-.27.19-.61.34-1,.44-.39.1-.84.15-1.35.15Zm-.66-1.12c.07.01.17.02.28.02.12,0,.23,0,.36,0,.35,0,.64-.03.88-.08.24-.06.43-.14.57-.24.15-.1.25-.22.31-.37.06-.14.1-.3.1-.47,0-.21-.05-.39-.14-.54-.1-.15-.26-.27-.5-.36-.12-.04-.28-.07-.46-.09-.18-.02-.41-.03-.67-.03h-.73v2.15Z"/>
      <path class="cls-1" d="m28.11,27.37c0,.5-.14.92-.41,1.26s-.7.6-1.27.77v.02l2.11,2.92h-1.56l-1.93-2.75h-.89v2.75h-1.3v-7.11h2.16c.36,0,.69.02,1,.06.31.04.57.1.79.18.42.16.74.4.97.71.23.31.34.71.34,1.18Zm-3.31,1.13c.3,0,.55-.01.76-.04.21-.03.38-.07.52-.12.26-.1.44-.23.54-.41.1-.17.15-.37.15-.59,0-.19-.04-.36-.12-.51s-.22-.26-.41-.35c-.12-.06-.28-.1-.47-.12-.19-.03-.42-.04-.7-.04h-.93v2.18h.64Z"/>
      <path class="cls-1" d="m39.28,28.79c0,.54-.08,1.04-.23,1.49-.15.45-.38.84-.67,1.17-.3.33-.66.58-1.09.76-.43.18-.92.27-1.47.27s-1.04-.09-1.47-.27c-.43-.18-.79-.43-1.09-.76-.3-.33-.52-.71-.67-1.17-.15-.45-.23-.95-.23-1.49s.08-1.04.23-1.49c.15-.45.38-.84.67-1.17.3-.33.66-.58,1.09-.76s.92-.27,1.47-.27,1.04.09,1.47.27c.43.18.79.43,1.09.76.3.33.52.71.67,1.17.15.45.23.95.23,1.49Zm-1.34,0c0-.43-.05-.81-.16-1.13-.11-.32-.25-.59-.44-.81-.19-.22-.41-.38-.67-.48-.26-.11-.54-.16-.85-.16s-.59.05-.85.16c-.26.11-.48.27-.67.48-.19.22-.33.49-.44.81-.11.32-.16.7-.16,1.13s.05.81.16,1.13c.11.32.25.59.44.81.19.21.41.38.67.48.26.11.54.16.85.16s.59-.05.85-.16c.26-.11.48-.27.67-.48.19-.21.33-.48.44-.81.11-.32.16-.7.16-1.13Z"/>
      <path class="cls-1" d="m47.11,26.2c-.35,0-.68.06-.98.18-.3.12-.56.29-.77.51-.21.22-.38.5-.5.83-.12.33-.18.7-.18,1.12s.06.79.17,1.1c.11.32.27.58.47.79s.46.37.75.48c.3.11.63.16,1.01.16.27,0,.54-.02.82-.06.28-.04.54-.1.79-.19v1.12c-.25.07-.52.13-.8.17-.29.04-.58.06-.89.06-.6,0-1.13-.09-1.59-.26s-.84-.41-1.14-.73c-.31-.31-.54-.69-.69-1.13-.15-.44-.23-.92-.23-1.45s.08-1.04.25-1.51c.16-.46.4-.87.71-1.21.31-.34.7-.61,1.16-.8.47-.19.99-.29,1.58-.3.3,0,.59.02.85.06.27.04.51.1.73.17v1.1c-.28-.09-.55-.15-.79-.19-.24-.04-.48-.05-.72-.05Z"/>
      <path class="cls-1" d="m54.31,31.25h3.5v1.09h-4.8v-7.11h4.61v1.09h-3.3v1.84h2.84v1.09h-2.84v2Z"/>
      <path class="cls-1" d="m65.67,30.3c0-.18-.04-.33-.13-.44-.09-.11-.21-.2-.36-.27-.15-.07-.32-.13-.51-.17s-.39-.09-.6-.13c-.28-.06-.54-.13-.79-.22-.25-.08-.47-.2-.66-.35-.19-.15-.34-.33-.46-.56-.11-.23-.17-.51-.17-.85,0-.38.07-.7.2-.98.13-.28.31-.51.53-.69.22-.18.49-.32.79-.41s.64-.14,1.02-.14.76.04,1.14.11c.38.07.71.17.99.29v1.12c-.37-.15-.72-.25-1.06-.32-.34-.07-.66-.1-.95-.1-.43,0-.76.08-.99.23-.23.16-.35.39-.35.7,0,.18.04.33.11.45.08.12.18.21.31.29.13.08.28.14.45.18.17.05.35.09.54.13.3.06.59.14.86.22s.52.2.73.35c.21.15.38.34.5.58.12.24.19.54.19.92s-.07.71-.21.99-.34.51-.6.69-.58.32-.95.41-.78.13-1.22.13c-.39,0-.77-.04-1.14-.11-.37-.08-.68-.18-.93-.32v-1.1c.35.15.69.26,1.02.33.33.07.68.1,1.03.1.21,0,.41-.02.61-.05.2-.03.38-.09.53-.17.16-.08.28-.19.38-.33.1-.14.14-.31.14-.52Z"/>
      <path class="cls-1" d="m74.94,30.3c0-.18-.04-.33-.13-.44-.09-.11-.21-.2-.36-.27-.15-.07-.32-.13-.51-.17s-.39-.09-.6-.13c-.28-.06-.54-.13-.79-.22-.25-.08-.47-.2-.66-.35-.19-.15-.34-.33-.46-.56-.11-.23-.17-.51-.17-.85,0-.38.07-.7.2-.98.13-.28.31-.51.53-.69.22-.18.49-.32.79-.41s.64-.14,1.02-.14.76.04,1.14.11c.38.07.71.17.99.29v1.12c-.37-.15-.72-.25-1.06-.32-.34-.07-.66-.1-.95-.1-.43,0-.76.08-.99.23-.23.16-.35.39-.35.7,0,.18.04.33.11.45.08.12.18.21.31.29.13.08.28.14.45.18.17.05.35.09.54.13.3.06.59.14.86.22s.52.2.73.35c.21.15.38.34.5.58.12.24.19.54.19.92s-.07.71-.21.99-.34.51-.6.69-.58.32-.95.41-.78.13-1.22.13c-.39,0-.77-.04-1.14-.11-.37-.08-.68-.18-.93-.32v-1.1c.35.15.69.26,1.02.33.33.07.68.1,1.03.1.21,0,.41-.02.61-.05.2-.03.38-.09.53-.17.16-.08.28-.19.38-.33.1-.14.14-.31.14-.52Z"/>
    </g>
    <g>
      <path class="cls-1" d="m166.82,30.3c0-.18-.04-.33-.13-.44-.09-.11-.21-.2-.36-.27-.15-.07-.32-.13-.51-.17s-.39-.09-.6-.13c-.28-.06-.54-.13-.79-.22-.25-.08-.47-.2-.66-.35-.19-.15-.34-.33-.46-.56-.11-.23-.17-.51-.17-.85,0-.38.07-.7.2-.98.13-.28.31-.51.53-.69.22-.18.49-.32.79-.41s.64-.14,1.02-.14.76.04,1.14.11c.38.07.71.17.99.29v1.12c-.37-.15-.72-.25-1.06-.32-.34-.07-.66-.1-.95-.1-.43,0-.76.08-.99.23-.23.16-.35.39-.35.7,0,.18.04.33.11.45.08.12.18.21.31.29.13.08.28.14.45.18.17.05.35.09.54.13.3.06.59.14.86.22s.52.2.73.35c.21.15.38.34.5.58.12.24.19.54.19.92s-.07.71-.21.99-.34.51-.6.69-.58.32-.95.41-.78.13-1.22.13c-.39,0-.77-.04-1.14-.11-.37-.08-.68-.18-.93-.32v-1.1c.35.15.69.26,1.02.33.33.07.68.1,1.03.1.21,0,.41-.02.61-.05.2-.03.38-.09.53-.17.16-.08.28-.19.38-.33.1-.14.14-.31.14-.52Z"/>
      <path class="cls-1" d="m173.9,31.25h3.5v1.09h-4.8v-7.11h4.61v1.09h-3.3v1.84h2.84v1.09h-2.84v2Z"/>
      <path class="cls-1" d="m183.07,25.23v6.02h3.33v1.09h-4.63v-7.11h1.3Z"/>
      <path class="cls-1" d="m191.91,31.25h3.5v1.09h-4.8v-7.11h4.61v1.09h-3.3v1.84h2.84v1.09h-2.84v2Z"/>
      <path class="cls-1" d="m203.23,26.2c-.35,0-.68.06-.98.18-.3.12-.56.29-.77.51-.21.22-.38.5-.5.83-.12.33-.18.7-.18,1.12s.06.79.17,1.1c.11.32.27.58.47.79s.46.37.75.48c.3.11.63.16,1.01.16.27,0,.54-.02.82-.06.28-.04.54-.1.79-.19v1.12c-.25.07-.52.13-.8.17-.29.04-.58.06-.89.06-.6,0-1.13-.09-1.59-.26s-.84-.41-1.14-.73c-.31-.31-.54-.69-.69-1.13-.15-.44-.23-.92-.23-1.45s.08-1.04.25-1.51c.16-.46.4-.87.71-1.21.31-.34.7-.61,1.16-.8.47-.19.99-.29,1.58-.3.3,0,.59.02.85.06.27.04.51.1.73.17v1.1c-.28-.09-.55-.15-.79-.19-.24-.04-.48-.05-.72-.05Z"/>
      <path class="cls-1" d="m212.03,32.34h-1.3v-6.02h-2.29v-1.09h5.89v1.09h-2.29v6.02Z"/>
      <path class="cls-1" d="m218.32,32.34v-7.11h1.3v7.11h-1.3Z"/>
      <path class="cls-1" d="m230.92,28.79c0,.54-.08,1.04-.23,1.49-.15.45-.38.84-.67,1.17-.3.33-.66.58-1.09.76-.43.18-.92.27-1.47.27s-1.04-.09-1.47-.27c-.43-.18-.79-.43-1.09-.76-.3-.33-.52-.71-.67-1.17-.15-.45-.23-.95-.23-1.49s.08-1.04.23-1.49c.15-.45.38-.84.67-1.17.3-.33.66-.58,1.09-.76s.92-.27,1.47-.27,1.04.09,1.47.27c.43.18.79.43,1.09.76.3.33.52.71.67,1.17.15.45.23.95.23,1.49Zm-1.34,0c0-.43-.05-.81-.16-1.13-.11-.32-.25-.59-.44-.81-.19-.22-.41-.38-.67-.48-.26-.11-.54-.16-.85-.16s-.59.05-.85.16c-.26.11-.48.27-.67.48-.19.22-.33.49-.44.81-.11.32-.16.7-.16,1.13s.05.81.16,1.13c.11.32.25.59.44.81.19.21.41.38.67.48.26.11.54.16.85.16s.59-.05.85-.16c.26-.11.48-.27.67-.48.19-.21.33-.48.44-.81.11-.32.16-.7.16-1.13Z"/>
      <path class="cls-1" d="m239,28.54c.51.73.92,1.37,1.24,1.93h.03c-.04-.92-.06-1.6-.06-2.02v-3.22h1.3v7.11h-1.37l-2.32-3.27c-.41-.57-.83-1.22-1.26-1.97h-.03c.04.87.06,1.55.06,2.02v3.22h-1.3v-7.11h1.37l2.34,3.3Z"/>
    </g>
    <g>
      <path class="cls-1" d="m91.78,26.2c-.35,0-.68.06-.98.18-.3.12-.56.29-.77.51-.21.22-.38.5-.5.83-.12.33-.18.7-.18,1.12s.06.79.17,1.1c.11.32.27.58.47.79.21.21.46.37.75.48s.63.16,1.01.16c.27,0,.54-.02.82-.06.28-.04.54-.1.79-.19v1.12c-.25.07-.52.13-.8.17-.29.04-.58.06-.89.06-.6,0-1.13-.09-1.59-.26s-.84-.41-1.14-.73c-.31-.31-.54-.69-.69-1.13s-.23-.92-.23-1.45.08-1.04.25-1.51c.17-.46.4-.87.71-1.21s.7-.61,1.16-.8c.47-.19.99-.29,1.58-.3.3,0,.59.02.85.06.27.04.51.1.73.17v1.1c-.28-.09-.55-.15-.79-.19s-.48-.05-.72-.05Z"/>
      <path class="cls-1" d="m100.62,32.47c-.37,0-.71-.04-1-.11s-.56-.18-.79-.31c-.23-.14-.42-.3-.58-.5-.16-.2-.29-.42-.38-.67-.08-.2-.13-.42-.17-.66-.03-.24-.05-.51-.05-.81v-4.19h1.3v4.07c0,.5.06.9.18,1.18.13.32.33.54.59.68s.56.21.91.21.65-.07.91-.21.46-.37.59-.68c.12-.28.18-.68.18-1.18v-4.07h1.3v4.19c0,.3-.02.57-.05.81-.03.24-.09.46-.17.66-.1.25-.22.47-.39.67-.16.2-.36.36-.59.5-.23.14-.5.24-.8.31-.3.07-.64.11-1.01.11Z"/>
      <path class="cls-1" d="m113.54,27.37c0,.5-.14.92-.41,1.26s-.7.6-1.27.77v.02l2.11,2.92h-1.56l-1.93-2.75h-.89v2.75h-1.3v-7.11h2.16c.36,0,.69.02,1,.06.31.04.57.1.79.18.42.16.74.4.97.71.23.31.34.71.34,1.18Zm-3.31,1.13c.3,0,.55-.01.76-.04.21-.03.38-.07.52-.12.26-.1.44-.23.54-.41.1-.17.15-.37.15-.59,0-.19-.04-.36-.12-.51-.08-.15-.22-.26-.41-.35-.12-.06-.28-.1-.47-.12s-.42-.04-.7-.04h-.93v2.18h.64Z"/>
      <path class="cls-1" d="m123.37,27.37c0,.5-.14.92-.41,1.26s-.7.6-1.27.77v.02l2.11,2.92h-1.56l-1.93-2.75h-.89v2.75h-1.3v-7.11h2.16c.36,0,.69.02,1,.06.31.04.57.1.79.18.42.16.74.4.97.71.23.31.34.71.34,1.18Zm-3.31,1.13c.3,0,.55-.01.76-.04.21-.03.38-.07.52-.12.26-.1.44-.23.54-.41.1-.17.15-.37.15-.59,0-.19-.04-.36-.12-.51-.08-.15-.22-.26-.41-.35-.12-.06-.28-.1-.47-.12s-.42-.04-.7-.04h-.93v2.18h.64Z"/>
      <path class="cls-1" d="m129.23,31.25h3.5v1.09h-4.8v-7.11h4.61v1.09h-3.3v1.84h2.84v1.09h-2.84v2Z"/>
      <path class="cls-1" d="m140.8,28.54c.51.73.92,1.37,1.24,1.93h.03c-.04-.92-.06-1.6-.06-2.02v-3.22h1.3v7.11h-1.37l-2.32-3.27c-.41-.57-.83-1.22-1.26-1.97h-.03c.04.87.06,1.55.06,2.02v3.22h-1.3v-7.11h1.37l2.34,3.3Z"/>
      <path class="cls-1" d="m150.91,32.34h-1.3v-6.02h-2.29v-1.09h5.89v1.09h-2.29v6.02Z"/>
    </g>
  </g>
</svg>